<?xml version="1.0" standalone="no"?>
<!DOCTYPE svg PUBLIC "-//W3C//DTD SVG 20010904//EN"
 "http://www.w3.org/TR/2001/REC-SVG-20010904/DTD/svg10.dtd">
<svg version="1.0" xmlns="http://www.w3.org/2000/svg"
 width="342.000000pt" height="342.000000pt" viewBox="0 0 342.000000 342.000000"
 preserveAspectRatio="xMidYMid meet">
<metadata>
Created by potrace 1.11, written by Peter Selinger 2001-2013
</metadata>
<g transform="translate(0.000000,342.000000) scale(0.100000,-0.100000)"
fill="#000000" stroke="none">
<path d="M1690 2605 c-193 -39 -347 -130 -473 -280 -48 -57 -120 -180 -139
-235 -3 -10 -19 -6 -64 16 -53 26 -69 29 -159 29 -91 0 -105 -3 -158 -29 -71
-36 -140 -108 -175 -184 -22 -48 -27 -71 -27 -143 l0 -87 -64 -10 c-199 -33
-369 -194 -416 -394 -15 -65 -20 -164 -9 -192 6 -14 117 -16 1160 -16 l1154 0
11 28 c6 15 15 52 21 82 18 97 -15 170 -95 209 -40 20 -64 21 -532 26 -654 7
-795 13 -802 32 -3 8 -2 18 3 23 6 6 296 14 659 19 740 11 706 7 828 99 79 61
115 116 172 261 l47 120 -17 58 c-57 196 -202 378 -381 479 -161 90 -369 124
-544 89z"/>
<path d="M2695 1941 c-15 -25 -65 -218 -65 -251 0 -41 29 -108 56 -132 37 -33
90 -46 209 -52 159 -9 195 -15 202 -33 12 -31 -25 -40 -180 -48 -211 -10 -294
-39 -393 -141 -44 -46 -118 -179 -108 -195 3 -5 216 -9 484 -9 l479 0 13 43
c19 66 15 260 -6 332 -71 234 -250 410 -477 469 -82 21 -205 31 -214 17z"/>
</g>
</svg>
